HIERARCHY
ROOT root
{
	OFFSET 0.000000 0.000000 0.000000
	CHANNELS 6 Xposition Yposition Zposition Zrotation Yrotation Xrotation
	JOINT lhip
	{
		OFFSET 0.058581 -0.082280 -0.017664
		CHANNELS 3 Zrotation Yrotation Xrotation
		JOINT lknee
		{
			OFFSET 0.043451 -0.386469 0.008037
			CHANNELS 3 Zrotation Yrotation Xrotation
			JOINT lankle
			{
				OFFSET -0.014790 -0.426874 -0.037428
				CHANNELS 3 Zrotation Yrotation Xrotation
				JOINT ltoe
				{
					OFFSET 0.041054 -0.060286 0.122042
					CHANNELS 3 Zrotation Yrotation Xrotation
					End Site
					{
						OFFSET 0.000000 0.000000 0.000000
					}
				}
			}
		}
	}
	JOINT rhip
	{
		OFFSET -0.060310 -0.090513 -0.013543
		CHANNELS 3 Zrotation Yrotation Xrotation
		JOINT rknee
		{
			OFFSET -0.043257 -0.383688 -0.004843
			CHANNELS 3 Zrotation Yrotation Xrotation
			JOINT rankle
			{
				OFFSET 0.019056 -0.420046 -0.034562
				CHANNELS 3 Zrotation Yrotation Xrotation
				JOINT rtoe
				{
					OFFSET -0.034840 -0.062106 0.130323
					CHANNELS 3 Zrotation Yrotation Xrotation
					End Site
					{
						OFFSET 0.000000 0.000000 0.000000
					}
				}
			}
		}
	}
	JOINT lowerback
	{
		OFFSET 0.004439 0.124404 -0.038385
		CHANNELS 3 Zrotation Yrotation Xrotation
		JOINT upperback
		{
			OFFSET 0.004488 0.137956 0.026820
			CHANNELS 3 Zrotation Yrotation Xrotation
			JOINT chest
			{
				OFFSET -0.002265 0.056032 0.002855
				CHANNELS 3 Zrotation Yrotation Xrotation
				JOINT lowerneck
				{
					OFFSET -0.013390 0.211636 -0.033468
					CHANNELS 3 Zrotation Yrotation Xrotation
					JOINT upperneck
					{
						OFFSET 0.010113 0.088937 0.050410
						CHANNELS 3 Zrotation Yrotation Xrotation
						End Site
						{
							OFFSET 0.000000 0.000000 0.000000
						}
					}
				}
				JOINT lclavicle
				{
					OFFSET 0.071702 0.114000 -0.018898
					CHANNELS 3 Zrotation Yrotation Xrotation
					JOINT lshoulder
					{
						OFFSET 0.122921 0.045205 -0.019046
						CHANNELS 3 Zrotation Yrotation Xrotation
						JOINT lelbow
						{
							OFFSET 0.255332 -0.015649 -0.022946
							CHANNELS 3 Zrotation Yrotation Xrotation
							JOINT lwrist
							{
								OFFSET 0.265709 0.012698 -0.007375
								CHANNELS 3 Zrotation Yrotation Xrotation
								End Site
								{
									OFFSET 0.000000 0.000000 0.000000
								}
							}
						}
					}
				}
				JOINT rclavicle
				{
					OFFSET -0.082954 0.112472 -0.023707
					CHANNELS 3 Zrotation Yrotation Xrotation
					JOINT rshoulder
					{
						OFFSET -0.113228 0.046853 -0.008472
						CHANNELS 3 Zrotation Yrotation Xrotation
						JOINT relbow
						{
							OFFSET -0.260127 -0.014369 -0.031269
							CHANNELS 3 Zrotation Yrotation Xrotation
							JOINT rwrist
							{
								OFFSET -0.269108 0.006794 -0.006027
								CHANNELS 3 Zrotation Yrotation Xrotation
								End Site
								{
									OFFSET 0.000000 0.000000 0.000000
								}
							}
						}
					}
				}
			}
		}
	}
}
MOTION
Frames: 8
Frame Time: 0.033333
0.545020 0.792533 0.931833 -83.773358 3.387199 89.668887 4.028324 -7.139287 -21.516433 -9.069864 -6.917109 45.463277 4.264234 9.824952 -27.950365 0.000000 -0.000000 0.000000 4.437928 4.210348 -19.140683 1.590974 -5.656531 44.948274 1.996714 -7.300389 -28.625847 0.000000 -0.000000 0.000000 -2.554084 1.237008 22.080479 2.537115 -2.710116 -4.117988 1.154602 -1.227201 3.521231 20.400440 12.064249 9.494211 15.589915 11.497295 1.653695 -25.911602 3.142229 3.114970 -58.352374 -1.537252 7.710293 11.936217 -35.014103 2.526444 -0.396955 -0.417404 -13.495543 20.738288 -2.087802 0.479010 63.548497 1.833800 13.079390 -18.636492 44.914978 1.998697 8.663740 2.324241 -15.358585 
0.547822 0.793243 0.906925 -81.735446 3.320017 90.017843 4.828648 -7.954343 -27.449004 -9.475527 -4.009226 54.089346 3.607391 7.406489 -30.145918 0.000000 -0.000000 0.000000 3.268642 3.994179 -23.532835 0.556770 -8.613598 53.156187 2.838403 -6.588870 -31.784389 0.000000 -0.000000 0.000000 -1.902795 0.850145 23.838438 1.936570 -2.917942 -5.096713 1.708109 -1.041944 1.962753 19.068434 9.839741 13.945595 15.913087 18.785450 0.494035 -27.302769 1.346756 4.157128 -57.872775 0.713433 3.441356 12.394324 -37.249104 2.420638 -3.369314 0.307589 -11.585936 19.729610 -0.019107 3.574853 63.125158 2.119507 9.462783 -16.202254 48.453213 3.427088 7.051410 1.693590 -13.520546 
0.549702 0.794833 0.879654 -79.598885 3.379039 89.798148 5.364007 -7.680902 -32.479037 -10.838891 -2.983344 62.404661 3.323742 5.611324 -31.881294 0.000000 -0.000000 0.000000 2.598380 2.648544 -27.406752 -0.720641 -10.815713 61.734343 2.917410 -6.879487 -33.928408 0.000000 -0.000000 0.000000 -1.399335 0.952135 25.318029 1.953862 -2.606810 -5.338546 1.780277 -0.833133 1.471487 19.451071 10.320944 16.149135 14.694165 22.738041 -0.648973 -28.365674 0.791421 4.267417 -57.795970 0.902103 2.390241 13.361513 -38.307375 1.036243 -2.551484 0.591155 -11.697600 19.618988 0.975031 4.438133 62.455126 2.938002 8.970270 -15.860116 50.344506 3.962519 5.836931 1.680035 -12.767887 
0.549219 0.795484 0.853568 -77.526637 3.179777 88.662932 6.014876 -9.153963 -35.291661 -11.970520 -1.195332 68.926478 3.692494 5.061391 -34.335985 0.000000 -0.000000 0.000000 1.521424 1.741119 -29.493176 -1.780010 -12.351965 69.408696 3.385997 -7.046897 -35.724607 0.000000 -0.000000 0.000000 -1.084486 1.541140 27.178153 1.847589 -2.057790 -5.220316 1.856748 -0.455060 0.705651 19.917163 11.154368 18.253800 12.822840 26.430074 -2.342350 -29.890199 -0.001318 4.759247 -57.599012 1.158162 1.709729 14.825564 -38.901466 -1.405427 -0.667421 0.846887 -11.672283 20.163068 2.459015 5.522922 61.452975 4.028539 8.951561 -16.544684 51.106479 3.461925 3.576049 1.097075 -10.268702 
0.546262 0.796367 0.830209 -74.845872 2.884892 87.667980 5.798433 -9.892666 -37.398376 -12.990829 -0.789466 74.232453 4.337223 4.575806 -36.764801 0.000000 -0.000000 0.000000 0.885345 0.759570 -30.832546 -2.371846 -12.395385 75.787894 4.527065 -7.037919 -36.864466 0.000000 -0.000000 0.000000 -0.880162 2.266186 28.229010 1.664171 -1.360826 -5.179978 1.917642 -0.023304 0.273667 19.938469 12.005429 19.903446 10.512287 29.770558 -4.284576 -31.294440 -0.411148 4.960226 -57.221662 1.607423 1.417023 15.197930 -39.260141 -2.847218 1.041804 1.010533 -12.013803 21.418042 3.798621 6.516388 60.064662 5.282973 9.093270 -16.273816 50.889934 3.068608 1.310921 0.781097 -7.561201 
0.542181 0.797623 0.814386 -71.430746 2.777029 86.623645 5.418080 -10.715072 -38.361256 -13.677906 -0.716535 77.599001 5.037617 4.532090 -38.475752 0.000000 -0.000000 0.000000 0.589406 -0.232380 -30.587874 -3.179007 -13.090694 79.569058 5.164766 -7.861881 -37.787724 0.000000 -0.000000 0.000000 -0.362491 2.906207 29.151486 1.332675 -0.624652 -5.341800 2.034769 0.622403 -0.199153 19.326731 12.831231 21.110619 8.009870 32.695488 -6.519684 -32.613049 -0.755832 5.404450 -56.912809 2.421064 0.992942 15.611385 -39.815714 -4.007218 2.043586 1.793793 -12.008883 22.382115 5.623343 7.453418 59.255185 6.655337 9.203024 -16.246274 50.390255 2.606046 -0.574589 0.330239 -4.169204 
0.536579 0.798772 0.810006 -67.688880 2.288673 85.907811 4.449681 -11.668390 -37.923418 -14.185300 -1.565773 78.186117 5.639970 4.379892 -39.401833 0.000000 -0.000000 0.000000 0.491429 -1.295131 -29.320285 -3.899768 -13.533646 80.441796 5.809956 -9.687471 -37.863723 0.000000 -0.000000 0.000000 -0.257589 4.201704 28.967345 0.820539 0.400647 -5.306906 2.186102 1.157738 -0.228841 18.218294 13.682325 21.266029 5.553069 34.889622 -8.519080 -33.229155 -0.628943 5.687029 -56.401607 3.194771 1.005673 15.160421 -40.942612 -3.652097 3.324098 1.529052 -12.047757 22.870925 7.308053 8.038029 58.749100 8.358556 9.721108 -15.961807 49.822837 2.316860 0.822876 -0.055825 -1.828016 
0.529501 0.800483 0.822644 -63.142635 1.988261 85.627607 3.291995 -12.254054 -36.086604 -15.106200 -4.061805 75.682782 5.965901 3.826729 -37.933150 0.000000 -0.000000 0.000000 1.123237 -2.283210 -26.583003 -4.730808 -14.465635 77.144136 5.984685 -12.240953 -36.625582 0.000000 -0.000000 0.000000 0.202080 5.720258 28.110531 -0.007030 1.855957 -6.086622 2.210317 2.084131 0.158268 16.086463 15.262843 20.050339 3.666937 35.381820 -9.815636 -32.134001 -0.067478 5.239646 -56.157654 3.925540 1.475627 12.862036 -42.972993 -0.488272 3.295791 1.486963 -11.304284 22.307539 8.290506 7.842568 58.755843 8.368801 10.198032 -15.067040 50.740235 2.769782 1.024934 0.340020 -0.557264 
